<svg xmlns="http://www.w3.org/2000/svg" width="194" height="48" fill="none"><path fill="#9A835E" d="M59.648 28.16c-.248-.19-.733-.329-.927-.434a9.888 9.888 0 0 0-1.087-.421 11.462 11.462 0 0 0-2.234-.615 11.677 11.677 0 0 0-2.281-.207c-.666.019-1.322-.053-1.946.154-.68.205-.948.752-1.032 1.362v19.5H21.489c.14-.451.431-1.755.072-4.13l-.027-.179H45.84V27.186c0-.019-.015-.019-.015-.04-.01-.084-.03-.15-.118-.2-.084-.066-.244-.021-.354 0a3.512 3.512 0 0 1-.432.031c-.514-.012-1.114-.202-1.374.377-.15.404-.13 1.014-.688 1.066-.398.045-.787 0-1.172 0h-1.184c-.195 0-.388 0-.526-.113-.26-.16-.29-.528-.29-.782l-.022-2.985c-.012-.411-.11-.863.106-1.214.206-.292.526-.452.871-.452l.871-.022c.454 0 .991-.073 1.473.053.39.095.484.36.637.676.184.422.557.433.958.38.266-.024.493 0 .73 0 .16 0 .376.053.529-.024a.459.459 0 0 0 .147-.324c.218-1.045 1.422-.876 2.207-.897 1.366-.032 2.688-.052 4.022.053 1.14.115 2.192.686 3.085 1.286a16.954 16.954 0 0 1 4.347 4.105Z"/><path fill="#595959" d="M30.653 21.349h-5.805v5.796h5.805V21.35Zm0 7.29h-5.805v5.805h5.805v-5.805Zm7.287 0h-5.796v5.805h5.796v-5.805Zm0-7.29h-5.796v5.796h5.796V21.35Z"/><path fill="#E82828" d="M57.128 23.194a12.36 12.36 0 0 0-2.099-1.165c-.75-.393-1.653-.745-2.652-.847l-.035-.004a30.953 30.953 0 0 0-2.37-.085c-.592 0-1.188.014-1.714.025L31.395 6.245 11.401 23.88h5.551v15.503h-1.803l.003 3.039-1.96.011-2.193.011.015 2.654 1.104-.003c.018-.437.056-.922.14-1.484l.944-.007 3.137-.027 3.96-.016c.381 2.523-.05 3.617-.05 3.617l-3.908.024-3.131.022-.872.003s-.191-.47-.22-1.487l-1.756.006-.017-3.947 2.849-.01 1.31-.007-.005-2.399h-1.856V28.19H0l12.696-11.197v-6.088h4.256v2.335L31.395.5l25.733 22.694Z"/><path fill="#1C1919" d="M72.873 36V11.313h9.258c1.896 0 3.487.33 4.773.989 1.294.659 2.27 1.583 2.93 2.772.666 1.181 1 2.56 1 4.135 0 1.583-.338 2.957-1.013 4.122-.667 1.157-1.651 2.053-2.953 2.688-1.302.627-2.901.94-4.798.94h-6.593v-3.712h5.99c1.11 0 2.018-.153 2.725-.458.707-.314 1.23-.768 1.567-1.363.346-.602.518-1.341.518-2.217 0-.876-.172-1.624-.518-2.242-.346-.627-.872-1.101-1.58-1.423-.706-.33-1.618-.494-2.735-.494h-4.099V36h-4.472Zm12.753-11.186L91.738 36h-4.99l-6.004-11.186h4.882Zm15.757 11.548c-1.856 0-3.46-.386-4.81-1.158-1.341-.78-2.374-1.88-3.097-3.302-.723-1.43-1.085-3.114-1.085-5.051 0-1.905.362-3.576 1.085-5.015.731-1.446 1.752-2.571 3.062-3.375 1.31-.811 2.849-1.217 4.616-1.217 1.142 0 2.218.185 3.231.554a7.293 7.293 0 0 1 2.7 1.688c.788.763 1.406 1.736 1.856 2.917.45 1.173.675 2.572.675 4.195v1.338H94.44v-2.941h10.994c-.008-.836-.189-1.58-.543-2.23a3.944 3.944 0 0 0-1.482-1.555c-.627-.378-1.359-.567-2.194-.567-.892 0-1.676.217-2.35.651a4.485 4.485 0 0 0-1.58 1.688 4.857 4.857 0 0 0-.566 2.278v2.567c0 1.077.196 2.001.59 2.773.394.763.944 1.35 1.652 1.76.707.401 1.534.602 2.483.602.635 0 1.209-.088 1.723-.265a3.827 3.827 0 0 0 1.339-.808 3.37 3.37 0 0 0 .855-1.313l4.075.458a6.364 6.364 0 0 1-1.471 2.82c-.715.796-1.631 1.415-2.748 1.857-1.117.434-2.395.65-3.834.65Zm14.983-11.21V36h-4.364V17.485h4.171v3.146h.217a5.293 5.293 0 0 1 2.037-2.471c.941-.61 2.102-.916 3.484-.916 1.278 0 2.391.273 3.339.82.956.546 1.696 1.337 2.218 2.374.53 1.037.791 2.294.783 3.773V36h-4.363V24.886c0-1.238-.322-2.206-.964-2.905-.635-.7-1.515-1.049-2.64-1.049-.764 0-1.443.17-2.037.507a3.513 3.513 0 0 0-1.387 1.434c-.329.627-.494 1.386-.494 2.278Zm23.092 11.21c-1.808 0-3.375-.398-4.701-1.194-1.326-.795-2.355-1.908-3.086-3.339-.723-1.43-1.085-3.102-1.085-5.014 0-1.913.362-3.588 1.085-5.027.731-1.438 1.76-2.555 3.086-3.35 1.326-.796 2.893-1.194 4.701-1.194 1.808 0 3.375.398 4.701 1.193 1.326.796 2.351 1.913 3.074 3.351.731 1.439 1.097 3.114 1.097 5.027 0 1.912-.366 3.584-1.097 5.014-.723 1.43-1.748 2.544-3.074 3.34-1.326.795-2.893 1.193-4.701 1.193Zm.024-3.496c.981 0 1.8-.27 2.459-.808.659-.546 1.149-1.277 1.471-2.194.329-.916.494-1.936.494-3.061 0-1.133-.165-2.158-.494-3.074-.322-.924-.812-1.66-1.471-2.206s-1.478-.82-2.459-.82c-1.004 0-1.84.274-2.507.82-.659.546-1.153 1.282-1.483 2.206-.321.916-.482 1.94-.482 3.074 0 1.125.161 2.145.482 3.061.33.917.824 1.648 1.483 2.194.667.539 1.503.808 2.507.808Zm27.154-15.381L160.043 36h-4.822l-6.593-18.515h4.652l4.256 13.754h.192l4.268-13.754h4.64ZM168.35 36V17.485h4.364V36h-4.364Zm2.194-21.143a2.547 2.547 0 0 1-1.784-.687c-.498-.466-.747-1.025-.747-1.676 0-.659.249-1.217.747-1.675a2.523 2.523 0 0 1 1.784-.7c.699 0 1.294.234 1.784.7.499.458.748 1.016.748 1.675 0 .651-.249 1.21-.748 1.676-.49.458-1.085.687-1.784.687Zm8.92 2.628 3.736 6.835 3.798-6.835h4.616l-5.581 9.257L191.711 36h-4.593l-3.918-6.666L179.319 36h-4.629l5.642-9.258-5.497-9.257h4.629Z"/></svg>